<?xml version="1.0" encoding="utf-8"?>
<!-- Generator: Adobe Illustrator 22.0.0, SVG Export Plug-In . SVG Version: 6.00 Build 0)  -->
<svg version="1.1" id="Layer_1" xmlns="http://www.w3.org/2000/svg" xmlns:xlink="http://www.w3.org/1999/xlink" x="0px" y="0px"
	 viewBox="0 0 828.5 103.4" style="enable-background:new 0 0 828.5 103.4;" xml:space="preserve">
<style type="text/css">
	.st0{fill:#9228C8;}
</style>
<g>
	<g>
		<g>
			<path class="st0" d="M104.2,18.3c0-1,0.9-1.9,1.9-1.9h9.4c1.1,0,1.9,0.9,1.9,1.9v26.8h33V18.3c0-1,0.8-1.9,1.9-1.9h9.3
				c1,0,1.9,0.9,1.9,1.9v67c0,1-0.9,1.9-1.9,1.9h-9.3c-1.1,0-1.9-0.9-1.9-1.9V57.4h-33v27.9c0,1-0.8,1.9-1.9,1.9h-9.4
				c-1,0-1.9-0.9-1.9-1.9V18.3z"/>
			<path class="st0" d="M185.2,18.3c0-1,0.9-1.9,1.9-1.9h9.6c1.1,0,1.9,0.9,1.9,1.9v42.2c0,8.6,5.9,14.6,14.7,14.6
				c8.8,0,14.8-6,14.8-14.5V18.3c0-1,0.8-1.9,1.9-1.9h9.6c1,0,1.9,0.9,1.9,1.9v42.9c0,15.4-12.3,27-28.3,27
				c-15.9,0-28.1-11.6-28.1-27V18.3z"/>
			<path class="st0" d="M263.1,17.2c0-1,0.9-1.8,1.9-1.8h1.5c0.7,0,1.2,0.2,1.7,0.7l41.3,44h0.2V18.3c0-1,0.8-1.9,1.9-1.9h9.3
				c1,0,1.9,0.9,1.9,1.9v68.1c0,1-0.9,1.8-1.9,1.8h-1.4c-0.7,0-1.2-0.2-1.7-0.7l-41.5-45.8h-0.2v43.5c0,1-0.8,1.9-1.9,1.9h-9.2
				c-1,0-1.9-0.9-1.9-1.9V17.2z"/>
			<path class="st0" d="M345.3,18.3c0-1,0.8-1.9,1.9-1.9h41.2c1.1,0,1.9,0.9,1.9,1.9v8.3c0,1-0.8,1.9-1.9,1.9h-30v16.6h25
				c1,0,1.9,0.9,1.9,1.9v8.4c0,1.1-0.9,1.9-1.9,1.9h-25v17.7h30c1.1,0,1.9,0.9,1.9,1.9v8.3c0,1-0.8,1.9-1.9,1.9h-41.2
				c-1.1,0-1.9-0.9-1.9-1.9V18.3z"/>
		</g>
		<g>
			<path class="st0" d="M69.8,11.4c-1,0.1-1.4,0.1-1.9,0.1c-3-0.3-19.4,0-21.8,0.1c-1.4,0.1-2.9,0.2-2.9,0.2c-0.2,0-0.7,0.1-1.2,0.1
				c-0.5,0.1-2.1,0.2-3.7,0.5c-2.3,0.4-4.2,1.1-4.9,1.4c-1.3,0.5-2.4,1.1-4,1.9c-1.5,0.8-7.9,4.1-12.4,9.3c-2.9,3.4-4.8,6.3-5.8,8.2
				c-2.1,4.1-3,7.7-3.4,9.6c0,0.1-0.5,2.3-0.8,4.3c-1.1,8.7,1.6,17,1.9,17.8c0,0,3.4,10.8,12.3,18c0.8,0.7,3.5,3.2,8.9,5.9
				c1.8,0.9,2.7,1.4,3.3,1.6c2.2,1,5.1,1.9,12.4,2.1c2.4,0.1,4.3,0.1,6.2,0.1c5.6,0,11.3,0.3,17-0.2c0.3,0,1.4-0.1,1.9,0.4
				c0.4,0.4,0.3,1.1,0.3,1.3c0,0.2,0,1-0.4,1.3c-0.4,0.3-1,0.3-1.1,0.3c-3.6,0.1-12.8,0.1-30.4-0.5c-5.3-0.2-9.5-2.3-14.6-5.3
				c-1.8-1-6.7-4.1-11.5-9.8c-4-4.7-6-9-6.6-10.2C1.5,59.7,2.6,49.7,3,46.4C4.1,37.9,7.2,32,8.2,30.2c1.3-2.4,4.3-7.3,9.7-11.9
				c8.6-7.4,17.6-9.2,19.8-9.6c0.2,0,0.4-0.1,0.4-0.1s0.8-0.1,1.5-0.2c2-0.2,4.4-0.3,4.4-0.3c15.8-0.4,23.9-0.7,24.3-0.7
				c0.4,0,2.1-0.1,2.7,0.5c0.5,0.5,0.2,2.2,0.2,2.4c0,0-0.1,0.4-0.3,0.8C70.8,11.3,70.3,11.4,69.8,11.4z"/>
			<path class="st0" d="M28,78.1c-5.9-4.6-9.6-11.2-11.2-18.4c-1.4-6-1.1-12.1,1-18.1c2.7-8,7.6-14.1,15-18.3
				c0.4-1.6,0.2-3.3,0.2-4.9c0-3.1-0.3-3.3-3.1-2c-0.2,0.1-0.4,0.2-0.7,0.3c-6,3.2-10.9,7.6-14.6,13.3c-1.8,2.7-3.1,5.6-4.2,8.6
				c-0.2,0.4-0.4,1.1-0.5,1.5c-0.4,1.5-0.8,2.3-0.9,3.7c-0.2,1.3-0.5,3.1-0.7,5.2c-0.2,2.5-0.4,7.5,1.1,13.6
				c0.2,1.1,1.8,6.7,5.6,12.3c1.3,1.9,2.7,3.7,4.4,5.4c3.3,3.4,7.1,6,11.5,8c1.5,0.7,2.1,0.3,2.2-1.3c0-1.8,0-3.5,0-5.3
				c0-0.5-0.1-1-0.4-1.3C32.2,80.3,29.6,79.8,28,78.1z"/>
			<path class="st0" d="M54.2,24.9c-2.6,0.2-3.7-2.1-4.6-3.7c-0.8-1.6-0.7-3.7,0.4-5.7c1.5-2.7,3.8-3.1,6.5-3.1c9.3,0,18.7,0.2,28,0
				c5.3-0.1,7.5,4.2,6.6,8.5c-0.3,1.8-3.1,4.2-4.9,4.2c-10.4,0.1-21,0.2-31.5-0.1"/>
			<path class="st0" d="M78.6,79.4c-0.4,0-0.9-0.1-1.3-0.1c-7.8,0-15.6,0-23.5,0.1c-1.4,0-2.4,0.8-3.3,1.9c-1.5,2.1-2,4.4-1,6.7
				c1.1,2.6,3.2,3.6,6.2,3.6c9.2-0.1,18.5,0,27.8,0c1.1,0,2.2,0.1,3.3-0.1h0.4c2-0.1,2.7-1.9,3.3-3.2c1.5-3.4-0.2-8.8-4.6-8.8
				C83.5,79.3,81.1,79.4,78.6,79.4"/>
			<path class="st0" d="M85,92.9c-2.2,2.7-4.6,4.6-6.5,6.9c-1,1.3-2.5,2.1-4.4,2c-2.5-0.1-5.1-0.2-7.6,0c-3.3,0.3-4.8-2.1-6.8-3.8
				c-0.8-0.8,0.4-0.8,0.9-0.8c2.9,0,5.7,0,8.6,0c2.9,0,2.9,0,3.2-2.9c0.1-0.8,0.3-1.4,1.2-1.4C77.4,92.9,81,92.9,85,92.9z"/>
			<path class="st0" d="M60.8,5.8c0.2-1.5,4.3-4,5.6-4c2.6,0,5.3,0,8,0c1.1,0,2.1,0.1,2.9,1c2.3,2.4,4.6,4.8,7.1,7.1
				c0.2,0.2,0.4,0.5,0.3,0.9c-0.1,0.4-0.5,0.4-1,0.4c-3.3,0-6.6,0-9.9,0c-1.6,0-1.6-1.3-1.4-2.4C72.8,7,72,6.6,70.2,6.6
				c-3.2,0.1-6.4,0.1-9.5,0.1C60.8,6.6,60.8,6.1,60.8,5.8z"/>
			<path class="st0" d="M54.1,24.8c0.3-0.3,0.8-0.4,1.2-0.4c7.7,0,15.4,0,23.1,0.3c-0.7,0-1.3,0-1.9,0c-7.4,0-14.6,0.1-22,0.1
				C54.4,24.9,54.3,24.9,54.1,24.8z"/>
		</g>
	</g>
	<g>
		<path class="st0" d="M454.4,80.5c-1-0.8-1.4-1.4-0.5-3l3.6-6.3c0.8-1.4,2.5-1.4,3.4-0.7c4.2,3.1,8.7,6.3,15.3,6.3
			c5.3,0,9.2-3.4,9.2-7.8c0-5.2-4.4-8.7-12.9-12.2c-9.5-3.9-19.1-9.9-19.1-21.9c0-9,6.7-19.5,22.8-19.5c10.3,0,18.2,5.3,20.3,6.8
			c1,0.6,1.3,2.3,0.6,3.3l-3.9,5.8c-0.8,1.2-2.3,2-3.5,1.2c-4.4-2.7-8.5-5.6-14.1-5.6c-5.8,0-8.9,3.2-8.9,7.1c0,4.8,3.7,8,12,11.3
			c9.8,4,21.2,9.8,21.2,22.9c0,10.4-9,20.1-23.3,20.1C463.9,88.4,457.4,83,454.4,80.5z"/>
		<path class="st0" d="M516.9,18.3c0-1,0.9-1.9,1.9-1.9h9.6c1.1,0,1.9,0.9,1.9,1.9v42.3c0,8.6,5.9,14.6,14.7,14.6
			c8.8,0,14.8-6,14.8-14.5V18.3c0-1,0.8-1.9,1.9-1.9h9.6c1,0,1.9,0.9,1.9,1.9v43c0,15.4-12.3,27.1-28.3,27.1
			c-15.9,0-28.2-11.7-28.2-27.1V18.3z"/>
		<path class="st0" d="M595,18.3c0-1,0.8-1.9,1.9-1.9h23.8c12.5,0,22.7,10.1,22.7,22.4c0,12.6-10.2,22.8-22.6,22.8h-12.7v23.8
			c0,1-0.9,1.9-1.9,1.9h-9.3c-1.1,0-1.9-0.9-1.9-1.9V18.3z M620.3,49.2c5.7,0,10-4.6,10-10.5c0-5.6-4.4-9.8-10-9.8h-12.2v20.4H620.3
			z"/>
		<path class="st0" d="M659.7,18.3c0-1,0.8-1.9,1.9-1.9h23.8c12.5,0,22.7,10.1,22.7,22.4c0,12.6-10.2,22.8-22.6,22.8h-12.7v23.8
			c0,1-0.9,1.9-1.9,1.9h-9.3c-1.1,0-1.9-0.9-1.9-1.9V18.3z M685.1,49.2c5.7,0,10-4.6,10-10.5c0-5.6-4.4-9.8-10-9.8h-12.2v20.4H685.1
			z"/>
		<path class="st0" d="M724.5,18.3c0-1,0.8-1.9,1.9-1.9h9.3c1,0,1.9,0.9,1.9,1.9v56.8h25.8c1.1,0,1.9,0.9,1.9,1.9v8.3
			c0,1-0.8,1.9-1.9,1.9h-37.1c-1.1,0-1.9-0.9-1.9-1.9V18.3z"/>
		<path class="st0" d="M788.5,53.2l-23.1-33.8c-0.8-1.3,0-2.9,1.6-2.9h10.3c0.8,0,1.3,0.5,1.6,0.9l16.2,23.3l16.2-23.3
			c0.3-0.4,0.8-0.9,1.6-0.9h10.4c1.6,0,2.4,1.6,1.6,2.9l-23.4,33.7v32.3c0,1-0.9,1.9-1.9,1.9h-9.3c-1.1,0-1.9-0.9-1.9-1.9V53.2z"/>
	</g>
</g>
</svg>
