<?xml version="1.0" standalone="no"?>
<!DOCTYPE svg PUBLIC "-//W3C//DTD SVG 20010904//EN"
 "http://www.w3.org/TR/2001/REC-SVG-20010904/DTD/svg10.dtd">
<svg version="1.0" xmlns="http://www.w3.org/2000/svg"
 width="2000.000000pt" height="421.000000pt" viewBox="0 0 2000.000000 421.000000"
 preserveAspectRatio="xMidYMid meet">
<metadata>
Created by potrace 1.15, written by Peter Selinger 2001-2017
</metadata>
<g transform="translate(0.000000,421.000000) scale(0.100000,-0.100000)"
fill="#000000" stroke="none">
<path d="M3407 4195 c-90 -25 -160 -67 -233 -139 -115 -115 -164 -234 -164
-401 0 -158 50 -278 164 -391 111 -110 219 -154 384 -154 305 0 542 239 542
546 -1 257 -155 465 -399 538 -66 19 -225 20 -294 1z"/>
<path d="M0 2045 l0 -2015 465 0 464 0 3 124 3 124 85 -65 c103 -77 234 -144
355 -179 122 -36 372 -45 510 -19 561 104 979 568 1080 1196 24 152 22 394 -5
556 -103 621 -523 1065 -1115 1179 -126 25 -397 25 -518 1 -114 -23 -236 -67
-320 -117 l-67 -39 0 635 0 634 -470 0 -470 0 0 -2015z m1663 -63 c156 -57
288 -194 338 -351 27 -86 29 -222 5 -306 -88 -299 -402 -470 -685 -372 -266
93 -423 377 -356 642 48 186 179 328 364 393 87 30 244 27 334 -6z"/>
<path d="M4210 2050 l0 -2010 475 0 475 0 0 2010 0 2010 -475 0 -475 0 0
-2010z"/>
<path d="M5340 2050 l0 -2010 475 0 475 0 0 2010 0 2010 -475 0 -475 0 0
-2010z"/>
<path d="M6490 2045 l0 -2015 465 0 465 0 0 131 0 130 58 -49 c125 -109 286
-188 457 -223 112 -23 326 -25 446 -4 232 40 458 157 637 329 215 206 351 454
427 781 6 27 10 19 34 -65 73 -254 192 -453 385 -645 210 -209 474 -346 764
-396 129 -22 325 -25 448 -8 551 76 1009 468 1186 1014 l32 99 22 -90 c131
-533 538 -921 1068 -1019 134 -25 460 -17 571 14 104 29 208 73 287 120 l63
39 3 -79 3 -79 469 0 470 0 0 1450 0 1450 -470 0 -470 0 0 -105 0 -105 -57 46
c-72 59 -230 136 -347 169 -269 76 -606 39 -881 -97 -133 -66 -214 -126 -331
-242 -193 -195 -306 -404 -385 -716 l-11 -45 -25 85 c-155 536 -571 928 -1114
1046 -120 27 -448 27 -568 0 -334 -73 -631 -253 -836 -509 -141 -175 -234
-363 -296 -597 l-12 -45 -14 60 c-91 397 -349 747 -685 928 -392 212 -912 222
-1251 25 -26 -15 -50 -28 -52 -28 -3 0 -5 284 -5 630 l0 630 -475 0 -475 0 0
-2015z m4491 1 c180 -39 338 -176 401 -351 26 -74 35 -217 18 -298 -29 -142
-146 -297 -275 -364 -213 -111 -455 -74 -625 97 -117 116 -166 245 -157 410 6
110 30 189 84 269 55 84 129 148 218 191 121 59 215 71 336 46z m2821 -17
c197 -40 363 -204 414 -409 21 -85 14 -221 -16 -308 -52 -148 -191 -284 -341
-333 -104 -34 -246 -33 -339 2 -171 65 -301 205 -345 374 -21 84 -20 218 5
296 56 182 212 331 393 375 66 16 161 17 229 3z m-5689 -34 c236 -61 406 -283
407 -531 0 -70 -34 -196 -70 -259 -180 -315 -588 -373 -846 -120 -80 78 -139
197 -156 312 -38 259 140 529 393 597 71 19 201 20 272 1z"/>
<path d="M19090 3426 l0 -635 -67 39 c-81 48 -203 93 -315 117 -128 27 -418
24 -558 -6 -105 -22 -258 -75 -340 -116 -94 -48 -233 -148 -316 -227 -543
-521 -605 -1478 -136 -2093 179 -234 425 -400 701 -472 130 -34 363 -43 499
-19 171 30 361 118 481 223 27 24 52 43 55 43 3 0 6 -54 6 -120 l0 -120 450 0
450 0 0 2010 0 2010 -455 0 -455 0 0 -634z m-432 -1421 c182 -43 339 -190 394
-370 25 -81 29 -222 9 -295 -77 -270 -343 -446 -607 -401 -111 20 -204 69
-288 153 -170 171 -213 414 -110 621 116 231 359 349 602 292z"/>
<path d="M16875 2946 c-101 -16 -171 -39 -257 -83 -66 -34 -164 -119 -206
-178 l-21 -30 -1 138 0 137 -475 0 -475 0 0 -1445 0 -1445 475 0 475 0 0 738
c0 808 1 815 60 932 41 81 96 140 168 178 79 42 148 59 280 67 l112 8 0 498 0
499 -27 -1 c-16 -1 -64 -7 -108 -13z"/>
<path d="M3080 1485 l0 -1445 475 0 475 0 0 1445 0 1445 -475 0 -475 0 0
-1445z"/>
</g>
</svg>
