<?xml version="1.0" standalone="no"?>
<!DOCTYPE svg PUBLIC "-//W3C//DTD SVG 20010904//EN"
 "http://www.w3.org/TR/2001/REC-SVG-20010904/DTD/svg10.dtd">
<svg version="1.0" xmlns="http://www.w3.org/2000/svg"
 width="542.000000pt" height="542.000000pt" viewBox="0 0 542.000000 542.000000"
 preserveAspectRatio="xMidYMid meet">
<metadata>
Created by potrace 1.15, written by Peter Selinger 2001-2017
</metadata>
<g transform="translate(0.000000,542.000000) scale(0.100000,-0.100000)"
fill="#000000" stroke="none">
<path d="M881 4226 c-50 -18 -111 -74 -132 -121 -11 -24 -31 -132 -48 -260
-17 -121 -33 -236 -36 -255 -9 -69 -85 -621 -125 -910 -22 -162 -45 -325 -50
-362 -6 -37 -10 -91 -10 -121 0 -32 -8 -72 -19 -98 -13 -28 -31 -127 -50 -264
-17 -121 -35 -247 -41 -281 -18 -108 23 -191 112 -228 33 -14 198 -16 1480
-16 l1442 0 44 21 c44 22 45 22 76 3 29 -18 60 -19 484 -22 428 -3 455 -2 496
16 42 19 88 67 100 107 3 11 29 35 56 52 64 42 93 87 141 219 49 131 66 243
50 321 -8 41 -8 60 1 76 6 12 17 64 24 117 7 52 22 158 33 235 21 148 49 349
102 735 49 358 44 443 -36 552 -65 89 -156 135 -290 146 l-80 7 -6 100 c-3 55
-10 111 -16 125 -16 38 -86 97 -130 109 -62 17 -372 14 -424 -4 -51 -18 -103
-65 -129 -115 -14 -28 -50 -214 -50 -260 0 -12 -33 -13 -46 -1 -19 18 -91 34
-174 40 l-84 6 3 90 c3 105 -6 136 -57 189 -59 61 -79 66 -283 66 -207 0 -241
-7 -303 -62 -54 -47 -71 -89 -92 -225 -8 -59 -17 -110 -19 -112 -3 -2 -33 7
-67 20 -52 20 -82 24 -168 24 -58 0 -139 -6 -180 -13 -66 -12 -81 -11 -119 2
-32 12 -81 16 -190 16 -157 -1 -194 -9 -260 -54 l-38 -26 -45 25 c-67 38 -135
55 -215 55 -40 0 -73 4 -73 8 0 5 5 33 10 64 21 111 -25 213 -115 255 -47 21
-62 23 -235 22 -119 0 -197 -5 -219 -13z m374 -180 c19 -14 19 -17 1 -161 -10
-80 -19 -153 -20 -160 -1 -12 30 -15 164 -18 186 -3 215 -11 267 -70 64 -73
65 -49 -37 -792 -51 -368 -97 -678 -101 -687 -14 -26 -39 -29 -203 -26 -127 3
-150 5 -160 20 -11 18 -10 24 98 818 38 272 51 400 45 412 -8 14 -22 18 -64
18 -64 0 -51 36 -95 -280 -105 -768 -132 -947 -146 -967 -14 -22 -20 -23 -174
-23 -131 0 -161 3 -174 16 -9 8 -16 18 -16 20 0 3 56 412 125 910 69 498 125
912 125 920 0 8 11 26 25 39 23 24 28 25 173 25 111 0 153 -4 167 -14z m2099
-2 c20 -19 20 -21 -4 -189 -10 -76 -18 -140 -16 -142 1 -2 79 -4 172 -6 183
-3 204 -8 255 -64 32 -34 44 -58 52 -101 4 -20 -19 -223 -58 -505 -36 -260
-77 -555 -91 -657 -30 -222 -31 -228 -54 -240 -10 -6 -88 -10 -173 -10 -129 0
-157 3 -168 16 -16 20 -13 48 80 719 46 336 66 506 60 518 -8 13 -22 17 -64
17 -49 0 -55 -3 -59 -22 -3 -13 -42 -288 -87 -613 -50 -364 -86 -599 -95 -612
-14 -22 -19 -23 -178 -23 -135 0 -166 3 -176 15 -11 13 -10 39 4 138 9 67 52
381 96 697 44 316 94 679 111 805 40 294 24 275 229 275 122 0 151 -3 164 -16z
m1050 0 c9 -8 16 -21 16 -28 0 -11 -20 -162 -35 -267 l-5 -37 168 -4 c132 -3
174 -8 203 -21 54 -27 90 -70 105 -127 12 -48 7 -91 -80 -727 -79 -571 -97
-679 -112 -690 -13 -9 -60 -13 -170 -13 -84 0 -159 3 -168 6 -11 4 -16 19 -16
47 0 36 143 1109 155 1164 8 34 -20 53 -76 53 -31 0 -51 -5 -53 -12 -5 -16
-166 -1188 -166 -1205 0 -7 -9 -22 -20 -33 -18 -18 -33 -20 -179 -20 -132 0
-161 3 -172 16 -10 13 9 171 115 942 123 899 128 928 152 950 24 21 34 22 174
22 122 0 151 -3 164 -16z m-2185 -358 c12 -11 21 -25 21 -31 0 -9 21 -6 74 11
85 27 238 45 293 34 83 -15 134 -60 154 -134 9 -32 8 -67 -5 -156 -8 -63 -47
-347 -86 -630 -39 -283 -74 -537 -77 -564 -10 -82 -19 -86 -192 -86 -178 0
-184 3 -175 83 3 29 20 218 39 420 18 203 35 371 38 373 3 3 21 -9 41 -27 20
-17 39 -29 43 -26 3 4 1 32 -6 63 -19 99 -19 100 64 152 41 26 75 50 75 53 0
4 -28 5 -62 3 -111 -6 -113 -5 -130 89 l-14 82 -39 -80 c-22 -44 -43 -82 -47
-85 -3 -3 -43 -4 -87 -4 -45 1 -83 -1 -85 -5 -2 -3 23 -26 55 -51 32 -25 58
-50 59 -57 0 -6 -15 -44 -34 -85 -19 -40 -32 -75 -31 -76 2 -2 24 10 50 28 26
18 48 30 49 28 2 -1 -18 -118 -45 -258 -26 -140 -62 -331 -80 -423 -18 -94
-38 -174 -46 -183 -11 -11 -47 -14 -169 -14 -151 0 -155 1 -164 23 -13 27 190
1508 210 1531 16 20 48 24 176 22 95 -1 115 -4 133 -20z m-1519 -1703 c0 -10
-7 -63 -15 -118 -19 -134 -21 -125 24 -125 45 0 42 -7 62 158 l12 102 44 0
c23 0 43 -1 43 -2 0 -2 -16 -115 -35 -251 -19 -137 -35 -251 -35 -253 0 -2
-19 -4 -41 -4 l-42 0 7 63 c4 34 9 77 13 95 5 32 5 32 -35 32 -46 0 -45 3 -60
-125 l-7 -60 -42 -3 c-24 -2 -43 -1 -43 2 0 9 59 439 65 474 6 30 9 32 45 32
32 0 40 -4 40 -17z m510 2 c11 -13 8 -51 -14 -208 -14 -105 -26 -202 -26 -213
0 -12 -9 -33 -21 -48 -20 -25 -24 -26 -119 -26 -88 0 -101 2 -110 19 -8 17 16
241 46 419 10 60 32 72 138 72 72 0 97 -4 106 -15z m330 1 c0 -33 -13 -46 -45
-46 l-32 0 -27 -202 c-36 -268 -30 -248 -77 -248 -26 0 -39 5 -39 13 0 14 47
363 55 410 4 25 2 27 -30 27 -36 0 -42 10 -29 44 9 22 224 24 224 2z m195 -96
c18 -68 32 -105 37 -98 4 7 8 23 8 35 0 12 5 56 11 98 l11 75 34 0 c19 0 34
-2 34 -4 0 -11 -61 -455 -66 -478 -5 -24 -10 -28 -40 -28 -34 0 -35 1 -29 33
6 29 -37 253 -54 285 -4 6 -15 -52 -25 -130 -24 -195 -21 -188 -63 -188 -33 0
-34 1 -28 33 6 39 65 463 65 471 0 3 17 6 39 6 l38 0 28 -110z m445 86 c0 -29
-16 -36 -80 -36 l-47 0 -7 -52 c-4 -29 -9 -72 -12 -95 l-6 -43 51 0 c28 0 51
-4 51 -9 0 -29 -16 -41 -61 -47 -46 -6 -49 -8 -54 -40 -3 -19 -7 -50 -10 -68
l-6 -35 58 -3 c55 -3 58 -4 61 -30 l3 -28 -105 0 c-81 0 -106 3 -106 13 0 18
59 446 65 475 5 21 10 22 105 22 99 0 100 0 100 -24z m156 -201 l-7 -225 25 0
c14 0 26 4 26 8 0 11 48 365 55 410 6 30 9 32 45 32 38 0 39 -1 35 -27 -8 -45
-55 -398 -55 -411 0 -7 11 -12 24 -12 23 0 26 9 70 193 25 105 49 207 52 225
6 30 9 32 50 32 24 0 44 -1 44 -2 0 -2 -27 -108 -59 -235 -34 -139 -65 -241
-75 -252 -16 -18 -32 -19 -154 -19 -79 0 -142 4 -149 10 -15 12 -18 210 -6
391 l6 107 40 0 40 0 -7 -225z m534 208 c0 -10 -7 -61 -15 -113 -21 -135 -22
-130 24 -130 l39 0 11 78 c6 42 13 101 17 130 l7 52 44 0 c43 0 44 -1 39 -27
-6 -31 -66 -460 -66 -474 0 -5 -20 -9 -43 -9 l-44 0 8 63 c5 34 11 77 14 95 6
32 6 32 -34 32 -45 0 -44 1 -56 -95 -12 -93 -13 -95 -56 -95 -25 0 -39 5 -39
13 0 15 59 443 66 475 4 18 11 22 44 22 32 0 40 -4 40 -17z m355 -15 c-7 -40
-65 -460 -65 -470 0 -5 -19 -8 -43 -8 l-43 0 35 255 35 255 44 0 43 0 -6 -32z
m355 17 c19 -23 4 -115 -37 -225 -41 -113 -58 -130 -123 -130 -53 0 -50 5 -65
-97 -7 -42 -8 -43 -46 -43 -30 0 -39 4 -39 18 0 9 14 124 32 255 l32 237 117
0 c91 0 119 -3 129 -15z m190 -7 c0 -13 -7 -66 -15 -118 -20 -127 -21 -120 25
-120 25 0 40 5 41 13 0 6 8 64 17 127 l17 115 43 3 c23 2 42 2 42 0 0 -2 -16
-116 -35 -253 -19 -138 -35 -251 -35 -252 0 -2 -19 -3 -41 -3 l-42 0 7 58 c4
31 9 74 13 95 l6 37 -41 0 -40 0 -11 -67 c-6 -38 -12 -79 -13 -93 -3 -22 -9
-25 -45 -28 -24 -2 -43 -1 -43 2 0 2 16 116 35 253 19 136 35 249 35 251 0 1
18 2 40 2 35 0 40 -3 40 -22z m510 7 c19 -23 -40 -447 -65 -475 -16 -17 -31
-20 -116 -20 -86 0 -100 2 -108 19 -12 21 41 427 59 461 14 26 24 28 126 29
71 1 94 -2 104 -14z m370 0 c18 -21 1 -115 -41 -229 -40 -111 -54 -126 -118
-126 -55 0 -56 -1 -66 -83 l-7 -57 -43 0 c-36 0 -42 3 -39 18 2 9 18 124 35
255 l32 237 117 0 c93 0 120 -3 130 -15z"/>
<path d="M1055 1931 c-9 -16 -54 -353 -48 -367 9 -24 62 -17 73 9 13 32 53
344 45 357 -8 12 -62 13 -70 1z"/>
<path d="M3410 1933 c0 -5 -7 -53 -15 -108 -20 -136 -20 -135 11 -135 29 0 52
44 81 152 21 82 15 98 -37 98 -22 0 -40 -3 -40 -7z"/>
<path d="M4124 1927 c-10 -27 -52 -350 -47 -363 9 -24 62 -17 73 9 13 32 53
334 46 352 -7 19 -65 20 -72 2z"/>
<path d="M4471 1878 c-5 -35 -13 -91 -17 -126 l-7 -64 29 4 c24 3 31 11 51 63
31 78 45 143 38 166 -5 14 -16 19 -45 19 l-38 0 -11 -62z"/>
</g>
</svg>
