<?xml version="1.0" standalone="no"?>
<!DOCTYPE svg PUBLIC "-//W3C//DTD SVG 20010904//EN"
 "http://www.w3.org/TR/2001/REC-SVG-20010904/DTD/svg10.dtd">
<svg version="1.0" xmlns="http://www.w3.org/2000/svg"
 width="1000.000000pt" height="203.000000pt" viewBox="0 0 1000.000000 203.000000"
 preserveAspectRatio="xMidYMid meet">
<metadata>
Created by potrace 1.15, written by Peter Selinger 2001-2017
</metadata>
<g transform="translate(0.000000,203.000000) scale(0.100000,-0.100000)"
fill="#000000" stroke="none">
<path d="M1110 1935 c-203 -37 -358 -120 -505 -270 -350 -358 -350 -941 0
-1301 170 -174 375 -266 625 -280 439 -25 833 263 947 693 22 83 26 119 26
238 0 119 -4 155 -26 237 -125 472 -589 769 -1067 683z m335 -241 c102 -26
218 -89 299 -165 88 -82 145 -167 188 -280 31 -81 33 -89 33 -234 0 -145 -2
-153 -33 -234 -43 -113 -100 -198 -188 -280 -130 -121 -291 -184 -474 -184
-116 1 -196 20 -310 76 -69 33 -102 58 -175 132 -74 73 -99 106 -133 175 -52
106 -74 199 -74 315 0 115 22 208 74 315 34 69 59 102 133 175 95 95 159 136
275 175 122 41 254 46 385 14z"/>
<path d="M965 1490 l50 -50 -193 -193 -192 -192 0 -62 c0 -62 16 -162 29 -175
4 -4 117 103 251 237 l245 245 47 -47 48 -47 0 167 0 167 -167 0 -167 0 49
-50z"/>
<path d="M1413 1393 l46 -48 -356 -358 -356 -357 72 -72 72 -72 357 357 357
357 48 -47 47 -48 0 168 0 167 -167 0 -167 0 47 -47z"/>
<path d="M1513 942 l47 -47 -245 -245 c-134 -134 -241 -247 -237 -251 13 -13
113 -29 175 -29 l62 0 192 192 193 193 50 -50 50 -49 0 167 0 167 -167 0 -167
0 47 -48z"/>
<path d="M6666 1724 c-73 -23 -131 -67 -155 -117 -18 -37 -21 -62 -21 -165 l0
-122 -70 0 -70 0 0 -75 0 -75 70 0 70 0 0 -274 c0 -157 -4 -286 -10 -301 l-10
-26 -107 3 -108 3 -5 285 c-6 310 -9 332 -68 393 -110 116 -328 126 -451 21
l-41 -36 0 241 0 241 -25 0 c-35 0 -273 -20 -312 -26 l-33 -5 0 -69 0 -70 70
0 70 0 -2 -487 -3 -488 -62 -3 -63 -3 0 -74 0 -75 250 0 250 0 0 75 0 75 -58
0 c-32 0 -63 5 -70 12 -15 15 -17 396 -2 447 20 72 105 131 187 131 57 0 109
-28 123 -66 6 -14 10 -135 10 -269 0 -273 6 -255 -81 -255 l-49 0 0 -75 0 -75
505 0 505 0 0 75 0 75 -85 0 c-73 0 -86 3 -95 19 -6 12 -10 126 -10 300 l0
281 115 0 115 0 0 75 0 75 -115 0 -115 0 0 95 c0 111 16 160 55 175 15 6 27
10 29 10 1 0 2 -22 2 -48 -1 -59 22 -98 71 -118 74 -32 164 15 179 92 15 83
-17 148 -94 185 -61 30 -211 37 -286 13z"/>
<path d="M8740 1704 c-74 -7 -136 -13 -137 -13 -2 -1 -3 -32 -3 -71 l0 -70 70
0 70 0 -2 -487 -3 -488 -62 -3 -63 -3 0 -74 0 -75 245 0 245 0 0 75 0 75 -53
0 c-29 0 -58 5 -65 12 -7 7 -12 41 -12 84 l0 71 50 47 c28 26 55 44 60 41 5
-3 51 -61 101 -128 l92 -122 -61 -3 -62 -3 0 -74 0 -75 255 0 255 0 0 75 0 75
-47 0 c-27 0 -55 6 -64 13 -21 17 -299 383 -299 395 0 12 166 165 197 181 12
6 47 11 77 11 l56 0 0 75 0 75 -240 0 -240 0 0 -75 0 -75 48 0 47 -1 -110
-106 -110 -105 -3 381 -2 381 -48 -1 c-26 -1 -108 -7 -182 -15z"/>
<path d="M3593 1659 c-41 -26 -68 -94 -58 -145 4 -23 20 -51 40 -71 29 -29 39
-33 87 -33 115 0 179 96 132 196 -33 70 -133 96 -201 53z"/>
<path d="M4110 1598 c0 -72 -18 -175 -36 -210 -21 -40 -70 -68 -121 -68 l-43
0 0 -75 0 -75 70 0 70 0 0 -294 c0 -322 7 -386 46 -427 49 -51 167 -63 322
-33 l82 17 0 79 c0 71 -2 79 -17 74 -38 -15 -172 -19 -188 -6 -13 11 -15 54
-15 301 l0 289 95 0 95 0 0 75 0 75 -95 0 -95 0 0 165 0 165 -85 0 -85 0 0
-52z"/>
<path d="M2310 1530 l0 -80 80 0 c119 0 111 32 108 -449 -3 -344 -5 -403 -18
-411 -8 -5 -50 -10 -92 -10 l-78 0 0 -80 0 -80 305 0 305 0 0 80 0 80 -74 0
c-41 0 -81 3 -90 6 -14 5 -16 30 -16 169 l0 164 213 3 212 3 53 29 c65 36 107
82 141 156 22 47 26 69 26 150 0 81 -4 103 -26 150 -46 99 -128 160 -245 185
-53 11 -154 15 -436 15 l-368 0 0 -80z m695 -91 c83 -22 144 -117 131 -201 -9
-58 -48 -113 -96 -138 -33 -17 -59 -20 -170 -20 l-130 0 0 185 0 185 113 0
c61 0 130 -5 152 -11z"/>
<path d="M3615 1335 c-71 -8 -142 -14 -157 -14 -28 -1 -28 -1 -28 -76 l0 -75
70 0 70 0 0 -288 c0 -211 -3 -291 -12 -300 -7 -7 -38 -12 -70 -12 l-58 0 0
-75 0 -75 255 0 255 0 0 75 0 74 -67 3 -68 3 -3 388 -2 387 -28 -1 c-15 -1
-85 -7 -157 -14z"/>
<path d="M4895 1339 c-242 -32 -395 -214 -395 -471 0 -99 15 -168 52 -244 52
-108 157 -189 279 -215 74 -16 211 -6 281 20 119 46 203 156 215 284 l6 67
-87 0 -86 0 0 -30 c0 -126 -151 -208 -277 -151 -84 38 -127 136 -126 286 0
100 24 184 65 230 45 52 77 65 156 65 l70 0 -19 -37 c-55 -107 20 -214 139
-200 139 16 179 191 69 305 -42 44 -95 70 -176 88 -72 15 -79 15 -166 3z"/>
<path d="M7319 1340 c-236 -36 -379 -209 -379 -462 0 -167 43 -282 141 -373
79 -72 144 -97 275 -103 156 -7 270 34 358 128 150 160 168 451 39 638 -90
132 -257 198 -434 172z m154 -175 c72 -34 117 -143 117 -287 0 -183 -54 -289
-163 -319 -84 -23 -169 21 -209 108 -60 134 -34 397 47 473 53 49 136 60 208
25z"/>
<path d="M8020 1330 c-96 -10 -176 -18 -177 -19 -2 -1 -3 -32 -3 -71 l0 -70
70 0 70 0 -2 -297 -3 -298 -62 -3 -63 -3 0 -74 0 -75 280 0 280 0 0 75 0 75
-95 0 c-92 0 -95 1 -101 25 -3 13 -4 104 -2 202 3 171 5 180 31 230 33 64 80
119 118 139 l29 15 0 -45 c0 -60 16 -92 55 -111 74 -34 155 -9 185 57 26 57
25 114 -2 168 -33 65 -82 90 -178 90 -91 0 -141 -21 -199 -80 l-41 -42 0 66
c0 36 -3 65 -7 65 -5 -1 -87 -10 -183 -19z"/>
<path d="M9770 1305 c0 -8 5 -15 10 -15 6 0 10 -22 10 -50 0 -27 -4 -50 -10
-50 -5 0 -10 -4 -10 -10 0 -5 16 -10 35 -10 19 0 35 5 35 10 0 6 -4 10 -10 10
-5 0 -10 15 -9 33 l0 32 16 -41 16 -41 59 -2 c33 -1 58 3 58 9 0 5 -4 10 -10
10 -5 0 -10 23 -10 50 0 28 5 50 10 50 6 0 10 7 10 16 0 11 -8 14 -31 12 -27
-3 -34 -10 -49 -48 l-18 -45 -16 37 c-9 21 -16 42 -16 48 0 5 -16 10 -35 10
-24 0 -35 -5 -35 -15z"/>
</g>
</svg>
