<svg xmlns="http://www.w3.org/2000/svg" id="Next" viewBox="0 0 511.6 511.6"><path d="M506.2 42a17.6 17.6 0 0 0-12.8-5.5h-36.6c-5 0-9.2 1.9-12.8 5.5a17.6 17.6 0 0 0-5.5 12.8v193.6c-1-2.1-2.2-4-3.7-5.4L232.1 40.3c-3.6-3.7-6.6-4.9-9.1-3.8-2.5 1.2-3.7 4.2-3.7 9.2v202.7c-1-2.1-2.2-4-3.7-5.4L12.8 40.3c-3.6-3.7-6.6-4.9-9-3.8C1.1 37.7 0 40.7 0 45.7v420.2c0 5 1.2 8 3.7 9.2 2.5 1.1 5.5-.1 9.1-3.7l202.8-202.7c1.5-1.7 2.7-3.6 3.7-5.5V466c0 5 1.2 8 3.7 9.2s5.5-.1 9.1-3.7l202.7-202.7a25 25 0 0 0 3.7-5.5v193.6c0 5 1.8 9.2 5.5 12.8 3.6 3.7 7.9 5.5 12.8 5.5h36.6c4.9 0 9.2-1.8 12.8-5.5 3.6-3.6 5.4-7.9 5.4-12.8v-402c0-5-1.8-9.2-5.4-12.8z"/></svg>