<svg xmlns="http://www.w3.org/2000/svg" id="Prev" viewBox="0 0 511.6 511.6"><path d="M508 36.6c-2.6-1.2-5.6 0-9.2 3.7L296 243c-1.7 1.5-3 3.3-3.7 5.4V45.7c0-5-1.3-8-3.8-9.2-2.4-1.1-5.5.1-9 3.8L76.7 243c-1.7 1.5-3 3.3-3.7 5.4V54.8c0-5-1.8-9.2-5.4-12.8a17.6 17.6 0 0 0-12.9-5.5H18.3c-5 0-9.3 1.8-12.9 5.5A17.6 17.6 0 0 0 0 54.8v402c0 5 1.8 9.2 5.4 12.9 3.6 3.6 8 5.4 12.9 5.4h36.5c5 0 9.2-1.8 12.9-5.4 3.6-3.7 5.4-8 5.4-12.9V263.2c.8 2 2 3.7 3.7 5.5l202.7 202.7c3.6 3.6 6.7 4.8 9.1 3.7 2.5-1.2 3.8-4.2 3.8-9.2V263.2c.7 2 2 3.8 3.7 5.5l202.7 202.7c3.6 3.6 6.6 4.8 9.1 3.7 2.5-1.2 3.7-4.2 3.7-9.1V45.7c0-5-1.2-8-3.7-9.1z"/></svg>