<svg xmlns="http://www.w3.org/2000/svg" id="Shuffle" viewBox="0 0 511.6 511.6"><path d="M234.7 270c8.7-20.7 16.2-37 22.3-48.7 4.5-8.8 8.8-16.2 12.8-22.2s8.9-11.8 14.6-17.5a56 56 0 0 1 19.7-12.9 68.7 68.7 0 0 1 24.8-4.2H402v54.8c0 2.4.9 4.6 2.7 6.4 1.8 1.8 4 2.7 6.4 2.7 2.7 0 4.9-.8 6.6-2.6l91.4-91.3a8.9 8.9 0 0 0 2.5-6.6c0-2.7-.8-4.8-2.5-6.6l-91.1-91a10.7 10.7 0 0 0-6.9-2.9c-2.6 0-4.8.9-6.5 2.6a9 9 0 0 0-2.6 6.5v54.9h-73a137.4 137.4 0 0 0-67 16.7 116.4 116.4 0 0 0-25.7 19.5c-8.3 8.2-15.4 16.1-21.2 23.7A242.2 242.2 0 0 0 197 180a421.9 421.9 0 0 0-15.5 30c-3.9 8.5-8.6 19-14 31.6a734 734 0 0 1-22.4 48.9 244 244 0 0 1-12.8 22c-4 6-8.9 12-14.6 17.6A56 56 0 0 1 98 343a68.7 68.7 0 0 1-24.8 4.3H9a8.9 8.9 0 0 0-9.1 9.1v54.8a9 9 0 0 0 2.6 6.6 8.9 8.9 0 0 0 6.5 2.6h64a137.3 137.3 0 0 0 67-16.7c8.8-4.9 17.4-11.4 25.7-19.6 8.2-8.2 15.3-16 21-23.7 5.9-7.6 12-17.1 18.3-28.5a422 422 0 0 0 15.5-30c3.9-8.6 8.6-19.1 14-31.7z"/><path d="M9.1 164.4h64a67.2 67.2 0 0 1 41.3 14.1c4.8 4 9.7 9.4 14.5 16.2 4.9 6.9 8.7 13 11.6 18.1l10.5 20.7a528.8 528.8 0 0 1 39.1-77.9c-30.4-42.8-69.4-64.2-117-64.2H9c-2.6 0-4.8.8-6.5 2.5a8.9 8.9 0 0 0-2.6 6.6v54.8c0 2.7.9 4.9 2.6 6.6a8.9 8.9 0 0 0 6.5 2.5zM418 286a10.7 10.7 0 0 0-6.9-2.8 8.9 8.9 0 0 0-9.1 9.1v54.9h-73a67 67 0 0 1-41.3-14.1 79.6 79.6 0 0 1-14.6-16.2 187 187 0 0 1-11.6-18.1c-2.8-5.2-6.4-12.2-10.5-20.7a574.6 574.6 0 0 1-38.9 78c5.2 7.4 10.5 14 16 19.8 5.5 5.8 10.8 10.9 15.7 15.2 5 4.4 10.6 8.2 16.9 11.5 6.2 3.2 11.8 6 16.5 8.1 4.8 2.2 10.8 4 18 5.3a215 215 0 0 0 38.5 4.4c8.6.3 15.6.4 20.9.3a2640.3 2640.3 0 0 1 47.4-.4V475c0 2.5.9 4.6 2.7 6.4 1.8 1.8 4 2.7 6.4 2.7 2.7 0 4.9-.8 6.6-2.6l91.4-91.3a9 9 0 0 0 2.5-6.6c0-2.6-.8-4.8-2.5-6.5L418 286z"/></svg>