<svg xmlns="http://www.w3.org/2000/svg" id="VolumeOn" viewBox="0 0 347.2 347.2"><path d="M210.1 0c-5 0-9.2 1.8-12.8 5.4l-95 95.1H27.3c-5 0-9.2 1.8-12.8 5.4A17.6 17.6 0 0 0 9 118.8v109.6c0 5 1.8 9.2 5.5 12.9 3.6 3.6 7.9 5.4 12.8 5.4h74.8l95 95c3.7 3.7 8 5.5 13 5.5s9.2-1.8 12.8-5.4c3.6-3.7 5.4-8 5.4-12.9V18.3c0-5-1.8-9.3-5.4-12.9C219.4 1.8 215 0 210 0zM325.9 133a65.6 65.6 0 0 0-32.1-26.5c-2-1-4.3-1.4-7.1-1.4-5 0-9.3 1.7-12.9 5.2a17.4 17.4 0 0 0-5.4 13c0 4 1.1 7.4 3.4 10.2 2.3 2.7 5 5.1 8.3 7.1 3.2 2 6.5 4.2 9.7 6.6 3.2 2.4 6 5.7 8.3 10.1a35 35 0 0 1 3.4 16.3 35 35 0 0 1-3.4 16.3c-2.3 4.3-5 7.7-8.3 10.1a149 149 0 0 1-9.7 6.6c-3.3 2-6 4.3-8.3 7.1a15.4 15.4 0 0 0-3.4 10.1c0 5.2 1.8 9.5 5.4 13 3.6 3.5 7.9 5.3 12.9 5.3a16 16 0 0 0 7-1.4 72.8 72.8 0 0 0 44.3-67c0-14.6-4-28-12.1-40.7z"/></svg>